<?xml version="1.0" encoding="UTF-8"?>
<!DOCTYPE svg PUBLIC "-//W3C//DTD SVG 1.1//EN" "http://www.w3.org/Graphics/SVG/1.1/DTD/svg11.dtd">
<svg xmlns="http://www.w3.org/2000/svg" version="1.1" width="659px" height="378px" style="shape-rendering:geometricPrecision; text-rendering:geometricPrecision; image-rendering:optimizeQuality; fill-rule:evenodd; clip-rule:evenodd" xmlns:xlink="http://www.w3.org/1999/xlink">
<g><path style="opacity:0.739" fill="#7e7e7e" d="M 297.5,152.5 C 297.5,147.167 297.5,141.833 297.5,136.5C 292.77,136.283 288.103,136.617 283.5,137.5C 283.611,136.883 283.944,136.383 284.5,136C 289.155,135.501 293.821,135.334 298.5,135.5C 298.822,141.358 298.489,147.025 297.5,152.5 Z"/></g>
<g><path style="opacity:0.739" fill="#5e5e5e" d="M 378.5,142.5 C 377.262,140.786 376.595,138.786 376.5,136.5C 368.833,136.5 361.167,136.5 353.5,136.5C 353.737,137.791 353.404,138.791 352.5,139.5C 352.5,138.167 352.5,136.833 352.5,135.5C 360.833,135.5 369.167,135.5 377.5,135.5C 377.993,137.806 378.326,140.139 378.5,142.5 Z"/></g>
<g><path style="opacity:0.735" fill="#737373" d="M 539.5,144.5 C 537.799,142.269 536.466,139.769 535.5,137C 529.833,136.333 524.167,136.333 518.5,137C 519.337,138.011 519.67,139.178 519.5,140.5C 518.069,139.22 517.402,137.553 517.5,135.5C 523.842,135.334 530.175,135.5 536.5,136C 537.929,138.69 538.929,141.523 539.5,144.5 Z"/></g>
<g><path style="opacity:0.738" fill="#575757" d="M 558.5,136.5 C 564.678,135.183 571.012,135.183 577.5,136.5C 577.376,137.107 577.043,137.44 576.5,137.5C 576.167,137.5 575.833,137.5 575.5,137.5C 570.025,136.511 564.358,136.178 558.5,136.5 Z"/></g>
<g><path style="opacity:1" fill="#040404" d="M 297.5,152.5 C 296.167,152.5 294.833,152.5 293.5,152.5C 291.983,152.511 290.816,153.177 290,154.5C 289.171,173.005 289.338,191.338 290.5,209.5C 290.611,210.117 290.944,210.617 291.5,211C 293.473,211.495 295.473,211.662 297.5,211.5C 297.5,216.833 297.5,222.167 297.5,227.5C 292.77,227.717 288.103,227.383 283.5,226.5C 280.5,224.167 277.833,221.5 275.5,218.5C 274.167,194.167 274.167,169.833 275.5,145.5C 277.833,142.5 280.5,139.833 283.5,137.5C 288.103,136.617 292.77,136.283 297.5,136.5C 297.5,141.833 297.5,147.167 297.5,152.5 Z"/></g>
<g><path style="opacity:1" fill="#020202" d="M 315.5,136.5 C 315.833,136.5 316.167,136.5 316.5,136.5C 319.434,140.773 322.767,144.773 326.5,148.5C 326.5,153.833 326.5,159.167 326.5,164.5C 321.5,164.5 316.5,164.5 311.5,164.5C 311.665,161.482 311.498,158.482 311,155.5C 310.617,154.944 310.117,154.611 309.5,154.5C 307.858,152.919 305.858,152.253 303.5,152.5C 303.5,147.167 303.5,141.833 303.5,136.5C 307.5,136.5 311.5,136.5 315.5,136.5 Z"/></g>
<g><path style="opacity:1" fill="#0c0c0c" d="M 378.5,142.5 C 380.022,147.273 381.022,152.273 381.5,157.5C 381.294,160.495 381.96,163.162 383.5,165.5C 384.219,167.764 384.552,170.097 384.5,172.5C 384.294,175.495 384.96,178.162 386.5,180.5C 387.219,182.764 387.552,185.097 387.5,187.5C 387.294,190.495 387.96,193.162 389.5,195.5C 390.15,197.435 390.483,199.435 390.5,201.5C 390.5,203.5 390.5,205.5 390.5,207.5C 378.988,207.172 367.654,207.505 356.5,208.5C 356.768,210.099 356.434,211.432 355.5,212.5C 354.097,215.909 353.43,219.575 353.5,223.5C 353.768,225.099 353.434,226.432 352.5,227.5C 346.402,228.117 340.735,227.45 335.5,225.5C 337.232,213.925 339.566,202.591 342.5,191.5C 351.833,191.5 361.167,191.5 370.5,191.5C 370.795,189.265 370.461,187.265 369.5,185.5C 369.678,181.878 369.011,178.544 367.5,175.5C 366.549,174.081 366.216,172.415 366.5,170.5C 366.799,168.396 366.466,166.396 365.5,164.5C 364.614,165.325 364.281,166.325 364.5,167.5C 364.5,167.833 364.5,168.167 364.5,168.5C 362.989,171.544 362.322,174.878 362.5,178.5C 362.768,180.099 362.434,181.432 361.5,182.5C 360.596,183.209 360.263,184.209 360.5,185.5C 355.167,185.5 349.833,185.5 344.5,185.5C 344.5,183.833 344.5,182.167 344.5,180.5C 346.799,166.732 349.465,153.065 352.5,139.5C 353.404,138.791 353.737,137.791 353.5,136.5C 361.167,136.5 368.833,136.5 376.5,136.5C 376.595,138.786 377.262,140.786 378.5,142.5 Z"/></g>
<g><path style="opacity:1" fill="#0d0d0d" d="M 443.5,136.5 C 446.796,140.298 450.296,143.964 454,147.5C 454.5,159.162 454.667,170.829 454.5,182.5C 454.5,183.167 454.167,183.5 453.5,183.5C 451.413,184.585 450.08,186.251 449.5,188.5C 448.379,191.591 448.713,194.591 450.5,197.5C 450.41,200.152 451.076,202.485 452.5,204.5C 453.451,205.919 453.784,207.585 453.5,209.5C 453.41,212.152 454.076,214.485 455.5,216.5C 455.294,219.495 455.96,222.162 457.5,224.5C 457.5,225.5 457.5,226.5 457.5,227.5C 451.833,227.5 446.167,227.5 440.5,227.5C 439.766,226.292 439.433,224.959 439.5,223.5C 439.435,220.572 438.768,217.905 437.5,215.5C 436.596,214.791 436.263,213.791 436.5,212.5C 436.706,209.505 436.04,206.838 434.5,204.5C 433.766,203.292 433.433,201.959 433.5,200.5C 434.113,197.031 432.779,195.031 429.5,194.5C 427.833,194.5 426.167,194.5 424.5,194.5C 424.334,188.824 424.501,183.157 425,177.5C 429,176.833 433,176.167 437,175.5C 437.5,168.508 437.666,161.508 437.5,154.5C 437.586,153.504 437.252,152.671 436.5,152C 433.183,151.502 429.85,151.335 426.5,151.5C 426.5,146.5 426.5,141.5 426.5,136.5C 432.167,136.5 437.833,136.5 443.5,136.5 Z"/></g>
<g><path style="opacity:0.627" fill="#a3a3a3" d="M 443.5,135.5 C 447.798,139.296 451.964,143.296 456,147.5C 456.667,158.833 456.667,170.167 456,181.5C 455.617,182.056 455.117,182.389 454.5,182.5C 454.667,170.829 454.5,159.162 454,147.5C 450.296,143.964 446.796,140.298 443.5,136.5C 443.5,136.167 443.5,135.833 443.5,135.5 Z"/></g>
<g><path style="opacity:1" fill="#030303" d="M 467.5,136.5 C 472.833,136.5 478.167,136.5 483.5,136.5C 483.5,159.5 483.5,182.5 483.5,205.5C 478.167,205.5 472.833,205.5 467.5,205.5C 467.5,182.5 467.5,159.5 467.5,136.5 Z"/></g>
<g><path style="opacity:1" fill="#090909" d="M 539.5,144.5 C 539.5,144.833 539.5,145.167 539.5,145.5C 539.12,147.698 539.787,149.365 541.5,150.5C 541.12,152.698 541.787,154.365 543.5,155.5C 544.738,157.214 545.405,159.214 545.5,161.5C 545.415,164.649 546.415,167.316 548.5,169.5C 549.73,171.297 550.396,173.297 550.5,175.5C 550.12,177.698 550.787,179.365 552.5,180.5C 552.5,180.833 552.5,181.167 552.5,181.5C 552.12,183.698 552.787,185.365 554.5,186.5C 555.427,200.137 555.76,213.804 555.5,227.5C 550.167,227.5 544.833,227.5 539.5,227.5C 539.828,215.988 539.495,204.654 538.5,193.5C 536.905,190.715 535.905,187.715 535.5,184.5C 535.598,182.447 534.931,180.78 533.5,179.5C 532.262,177.786 531.595,175.786 531.5,173.5C 531.598,171.447 530.931,169.78 529.5,168.5C 528.89,167.609 528.557,166.609 528.5,165.5C 528.598,163.447 527.931,161.78 526.5,160.5C 524.572,156.715 523.238,152.715 522.5,148.5C 522.598,146.447 521.931,144.78 520.5,143.5C 519.596,142.791 519.263,141.791 519.5,140.5C 519.67,139.178 519.337,138.011 518.5,137C 524.167,136.333 529.833,136.333 535.5,137C 536.466,139.769 537.799,142.269 539.5,144.5 Z"/></g>
<g><path style="opacity:1" fill="#0f0f0f" d="M 558.5,136.5 C 564.358,136.178 570.025,136.511 575.5,137.5C 574.629,140.112 573.963,142.779 573.5,145.5C 573.737,146.791 573.404,147.791 572.5,148.5C 571.069,149.78 570.402,151.447 570.5,153.5C 570.737,154.791 570.404,155.791 569.5,156.5C 568.069,157.78 567.402,159.447 567.5,161.5C 567.5,161.833 567.5,162.167 567.5,162.5C 566.069,163.78 565.402,165.447 565.5,167.5C 565.405,169.786 564.738,171.786 563.5,173.5C 562.069,174.78 561.402,176.447 561.5,178.5C 561.737,179.791 561.404,180.791 560.5,181.5C 559.883,181.611 559.383,181.944 559,182.5C 558.722,181.584 558.222,180.918 557.5,180.5C 556.596,179.791 556.263,178.791 556.5,177.5C 556.405,175.214 555.738,173.214 554.5,171.5C 552.399,168.203 551.065,164.537 550.5,160.5C 551.301,158.958 551.634,157.292 551.5,155.5C 553.655,153.383 554.655,150.716 554.5,147.5C 556.074,145.898 556.741,143.898 556.5,141.5C 558.213,140.365 558.88,138.698 558.5,136.5 Z"/></g>
<g><path style="opacity:0.426" fill="#7e7e7e" d="M 315.5,136.5 C 311.5,136.5 307.5,136.5 303.5,136.5C 303.5,141.833 303.5,147.167 303.5,152.5C 302.511,147.025 302.178,141.358 302.5,135.5C 307.032,135.182 311.366,135.515 315.5,136.5 Z"/></g>
<g><path style="opacity:0.576" fill="#acacac" d="M 316.5,136.5 C 320.898,139.895 324.564,143.895 327.5,148.5C 327.167,148.5 326.833,148.5 326.5,148.5C 322.767,144.773 319.434,140.773 316.5,136.5 Z"/></g>
<g><path style="opacity:0.562" fill="#878787" d="M 402.5,135.5 C 408.5,135.5 414.5,135.5 420.5,135.5C 420.987,155.652 420.487,175.652 419,195.5C 413.658,194.949 408.325,194.616 403,194.5C 402.5,174.836 402.333,155.169 402.5,135.5 Z"/></g>
<g><path style="opacity:1" fill="#010101" d="M 403.5,136.5 C 408.833,136.5 414.167,136.5 419.5,136.5C 419.5,155.5 419.5,174.5 419.5,193.5C 414.167,193.5 408.833,193.5 403.5,193.5C 403.5,174.5 403.5,155.5 403.5,136.5 Z"/></g>
<g><path style="opacity:0.893" fill="#535353" d="M 443.5,135.5 C 443.5,135.833 443.5,136.167 443.5,136.5C 437.833,136.5 432.167,136.5 426.5,136.5C 426.5,141.5 426.5,146.5 426.5,151.5C 429.85,151.335 433.183,151.502 436.5,152C 437.252,152.671 437.586,153.504 437.5,154.5C 433.473,152.642 429.14,151.975 424.5,152.5C 424.5,146.833 424.5,141.167 424.5,135.5C 430.833,135.5 437.167,135.5 443.5,135.5 Z"/></g>
<g><path style="opacity:0.72" fill="#494949" d="M 467.5,136.5 C 467.5,136.167 467.5,135.833 467.5,135.5C 473.167,135.5 478.833,135.5 484.5,135.5C 484.5,158.833 484.5,182.167 484.5,205.5C 484.167,205.5 483.833,205.5 483.5,205.5C 483.5,182.5 483.5,159.5 483.5,136.5C 478.167,136.5 472.833,136.5 467.5,136.5 Z"/></g>
<g><path style="opacity:0.965" fill="#757575" d="M 558.5,136.5 C 558.88,138.698 558.213,140.365 556.5,141.5C 556.402,139.447 557.069,137.78 558.5,136.5 Z"/></g>
<g><path style="opacity:0.29" fill="#bcbcbc" d="M 575.5,137.5 C 575.833,137.5 576.167,137.5 576.5,137.5C 576.267,140.542 575.267,143.208 573.5,145.5C 573.963,142.779 574.629,140.112 575.5,137.5 Z"/></g>
<g><path style="opacity:0.757" fill="#8c8c8c" d="M 556.5,141.5 C 556.741,143.898 556.074,145.898 554.5,147.5C 554.595,145.214 555.262,143.214 556.5,141.5 Z"/></g>
<g><path style="opacity:0.408" fill="#a6a6a6" d="M 520.5,143.5 C 521.931,144.78 522.598,146.447 522.5,148.5C 521.069,147.22 520.402,145.553 520.5,143.5 Z"/></g>
<g><path style="opacity:0.898" fill="#757575" d="M 539.5,145.5 C 540.931,146.78 541.598,148.447 541.5,150.5C 539.787,149.365 539.12,147.698 539.5,145.5 Z"/></g>
<g><path style="opacity:0.904" fill="#545454" d="M 275.5,145.5 C 274.167,169.833 274.167,194.167 275.5,218.5C 274.542,218.047 273.708,217.381 273,216.5C 272.333,193.5 272.333,170.5 273,147.5C 273.708,146.619 274.542,145.953 275.5,145.5 Z"/></g>
<g><path style="opacity:0.38" fill="#adadad" d="M 572.5,148.5 C 572.598,150.553 571.931,152.22 570.5,153.5C 570.402,151.447 571.069,149.78 572.5,148.5 Z"/></g>
<g><path style="opacity:0.851" fill="#848484" d="M 541.5,150.5 C 542.537,151.93 543.204,153.597 543.5,155.5C 541.787,154.365 541.12,152.698 541.5,150.5 Z"/></g>
<g><path style="opacity:0.914" fill="#646464" d="M 554.5,147.5 C 554.655,150.716 553.655,153.383 551.5,155.5C 551.98,152.557 552.98,149.89 554.5,147.5 Z"/></g>
<g><path style="opacity:0.589" fill="#8f8f8f" d="M 293.5,152.5 C 292.71,153.794 291.71,154.961 290.5,156C 291.552,173.919 291.552,191.753 290.5,209.5C 289.338,191.338 289.171,173.005 290,154.5C 290.816,153.177 291.983,152.511 293.5,152.5 Z"/></g>
<g><path style="opacity:0.783" fill="#9d9acb" d="M 172.5,159.5 C 160.167,159.5 147.833,159.5 135.5,159.5C 142.281,158.085 149.281,157.418 156.5,157.5C 162.098,157.276 167.431,157.943 172.5,159.5 Z"/></g>
<g><path style="opacity:0.847" fill="#8b8b8b" d="M 551.5,155.5 C 551.634,157.292 551.301,158.958 550.5,160.5C 549.957,160.44 549.624,160.107 549.5,159.5C 549.994,157.974 550.661,156.641 551.5,155.5 Z"/></g>
<g><path style="opacity:0.471" fill="#9a9a9a" d="M 569.5,156.5 C 569.598,158.553 568.931,160.22 567.5,161.5C 567.402,159.447 568.069,157.78 569.5,156.5 Z"/></g>
<g><path style="opacity:0.998" fill="#40409a" d="M 135.5,159.5 C 147.833,159.5 160.167,159.5 172.5,159.5C 173.791,159.263 174.791,159.596 175.5,160.5C 176.167,161.167 176.833,161.833 177.5,162.5C 175.412,162.865 173.079,162.865 170.5,162.5C 168.435,162.483 166.435,162.15 164.5,161.5C 160.354,160.353 156.02,160.186 151.5,161C 150.209,162.292 150.209,163.458 151.5,164.5C 151.054,167.01 151.72,169.01 153.5,170.5C 153.5,170.833 153.5,171.167 153.5,171.5C 153.34,173.199 153.506,174.866 154,176.5C 164.084,175.514 174.251,175.181 184.5,175.5C 184.5,173.833 184.5,172.167 184.5,170.5C 188.289,170.263 188.289,169.596 184.5,168.5C 183.086,166.402 183.752,165.402 186.5,165.5C 191.484,167.326 196.151,169.659 200.5,172.5C 208.668,173.705 217.001,174.705 225.5,175.5C 228.907,177.074 232.573,178.074 236.5,178.5C 237.492,178.328 238.158,178.662 238.5,179.5C 239.095,184.223 240.429,188.557 242.5,192.5C 241.388,194.599 240.721,196.933 240.5,199.5C 238.139,199.674 235.806,200.007 233.5,200.5C 233.81,197.287 233.477,194.287 232.5,191.5C 230.413,187.078 227.08,184.078 222.5,182.5C 219.66,181.083 216.993,181.416 214.5,183.5C 212.194,185.139 210.194,187.139 208.5,189.5C 207.883,189.611 207.383,189.944 207,190.5C 206.502,193.482 206.335,196.482 206.5,199.5C 185.353,201.163 164.02,202.163 142.5,202.5C 139.833,202.5 137.167,202.5 134.5,202.5C 134.5,201.5 134.5,200.5 134.5,199.5C 134.663,197.143 134.497,194.81 134,192.5C 133.8,190.68 132.966,189.347 131.5,188.5C 131.443,187.391 131.11,186.391 130.5,185.5C 130.027,184.094 129.027,183.427 127.5,183.5C 127.167,183.5 126.833,183.5 126.5,183.5C 124.007,181.416 121.34,181.083 118.5,182.5C 117.063,183.725 115.396,184.725 113.5,185.5C 112.113,187.21 110.779,188.877 109.5,190.5C 107.735,193.123 107.068,196.123 107.5,199.5C 105.167,199.5 102.833,199.5 100.5,199.5C 98.8984,197.926 96.8984,197.259 94.5,197.5C 93.6618,197.158 93.3284,196.492 93.5,195.5C 93.4142,194.504 93.7476,193.671 94.5,193C 93.1031,191.69 92.1031,190.19 91.5,188.5C 90.1472,186.872 90.4805,185.538 92.5,184.5C 94.3878,182.012 95.0545,179.012 94.5,175.5C 93.3143,174.039 93.3143,172.705 94.5,171.5C 98.5138,171.666 102.514,171.499 106.5,171C 108.653,170.901 110.319,170.067 111.5,168.5C 114.256,166.796 117.256,165.463 120.5,164.5C 124.358,164.23 127.691,162.897 130.5,160.5C 132.042,159.699 133.708,159.366 135.5,159.5 Z M 146.5,162.5 C 146.244,166.269 146.577,169.936 147.5,173.5C 139.156,173.388 130.822,173.055 122.5,172.5C 122.5,171.5 122.5,170.5 122.5,169.5C 124.027,169.573 125.027,168.906 125.5,167.5C 128.241,167.293 130.574,166.293 132.5,164.5C 137.117,163.513 141.784,162.846 146.5,162.5 Z M 128.5,186.5 C 128.5,186.167 128.5,185.833 128.5,185.5C 129.167,185.5 129.833,185.5 130.5,185.5C 131.11,186.391 131.443,187.391 131.5,188.5C 130.5,187.833 129.5,187.167 128.5,186.5 Z"/></g>
<g><path style="opacity:0.475" fill="#9696c7" d="M 164.5,161.5 C 160.486,161.334 156.486,161.501 152.5,162C 151.748,162.671 151.414,163.504 151.5,164.5C 150.209,163.458 150.209,162.292 151.5,161C 156.02,160.186 160.354,160.353 164.5,161.5 Z"/></g>
<g><path style="opacity:0.255" fill="#c7c7e2" d="M 175.5,160.5 C 177.553,160.402 179.22,161.069 180.5,162.5C 179.5,162.5 178.5,162.5 177.5,162.5C 176.833,161.833 176.167,161.167 175.5,160.5 Z"/></g>
<g><path style="opacity:0.012" fill="#d6d6d6" d="M 381.5,157.5 C 382.768,159.905 383.435,162.572 383.5,165.5C 381.96,163.162 381.294,160.495 381.5,157.5 Z"/></g>
<g><path style="opacity:0.773" fill="#918ec4" d="M 130.5,160.5 C 127.691,162.897 124.358,164.23 120.5,164.5C 123.53,162.597 126.863,161.263 130.5,160.5 Z"/></g>
<g><path style="opacity:0.016" fill="#c7c6e1" d="M 146.5,162.5 C 141.784,162.846 137.117,163.513 132.5,164.5C 136.926,161.698 141.592,161.031 146.5,162.5 Z"/></g>
<g><path style="opacity:0.298" fill="#bebebe" d="M 526.5,160.5 C 527.931,161.78 528.598,163.447 528.5,165.5C 527.069,164.22 526.402,162.553 526.5,160.5 Z"/></g>
<g><path style="opacity:0.943" fill="#7a74b7" d="M 170.5,162.5 C 173.079,162.865 175.412,162.865 177.5,162.5C 178.5,162.5 179.5,162.5 180.5,162.5C 182.819,162.992 184.819,163.992 186.5,165.5C 183.752,165.402 183.086,166.402 184.5,168.5C 179.765,166.461 175.099,164.461 170.5,162.5 Z"/></g>
<g><path style="opacity:0.778" fill="#828282" d="M 326.5,148.5 C 326.833,148.5 327.167,148.5 327.5,148.5C 328.236,154.189 328.236,159.855 327.5,165.5C 321.863,166.663 316.196,166.83 310.5,166C 309.54,162.27 309.207,158.437 309.5,154.5C 310.117,154.611 310.617,154.944 311,155.5C 311.498,158.482 311.665,161.482 311.5,164.5C 316.5,164.5 321.5,164.5 326.5,164.5C 326.5,159.167 326.5,153.833 326.5,148.5 Z"/></g>
<g><path style="opacity:0.286" fill="#bcbcbc" d="M 567.5,162.5 C 567.598,164.553 566.931,166.22 565.5,167.5C 565.402,165.447 566.069,163.78 567.5,162.5 Z"/></g>
<g><path style="opacity:0.314" fill="#aaaaaa" d="M 366.5,170.5 C 365.833,169.5 365.167,168.5 364.5,167.5C 364.281,166.325 364.614,165.325 365.5,164.5C 366.466,166.396 366.799,168.396 366.5,170.5 Z"/></g>
<g><path style="opacity:0.094" fill="#b4b4b4" d="M 545.5,161.5 C 547.02,163.89 548.02,166.557 548.5,169.5C 546.415,167.316 545.415,164.649 545.5,161.5 Z"/></g>
<g><path style="opacity:0.012" fill="#d1d0e6" d="M 125.5,167.5 C 125.027,168.906 124.027,169.573 122.5,169.5C 122.973,168.094 123.973,167.427 125.5,167.5 Z"/></g>
<g><path style="opacity:0.929" fill="#9894c8" d="M 151.5,164.5 C 152.738,166.214 153.405,168.214 153.5,170.5C 151.72,169.01 151.054,167.01 151.5,164.5 Z"/></g>
<g><path style="opacity:0.127" fill="#cecde5" d="M 184.5,168.5 C 188.289,169.596 188.289,170.263 184.5,170.5C 184.5,169.833 184.5,169.167 184.5,168.5 Z"/></g>
<g><path style="opacity:0.655" fill="#aaa9d2" d="M 111.5,168.5 C 110.319,170.067 108.653,170.901 106.5,171C 102.514,171.499 98.5138,171.666 94.5,171.5C 100.097,170.799 105.764,169.799 111.5,168.5 Z"/></g>
<g><path style="opacity:0.369" fill="#aeaeae" d="M 529.5,168.5 C 530.931,169.78 531.598,171.447 531.5,173.5C 530.069,172.22 529.402,170.553 529.5,168.5 Z"/></g>
<g><path style="opacity:0.412" fill="#aeadd4" d="M 122.5,172.5 C 130.822,173.055 139.156,173.388 147.5,173.5C 139.677,174.656 131.677,174.823 123.5,174C 122.944,173.617 122.611,173.117 122.5,172.5 Z"/></g>
<g><path style="opacity:0.169" fill="#bfbedd" d="M 200.5,172.5 C 209.15,172.04 217.484,173.04 225.5,175.5C 217.001,174.705 208.668,173.705 200.5,172.5 Z"/></g>
<g><path style="opacity:0.278" fill="#acacd3" d="M 184.5,170.5 C 184.5,172.167 184.5,173.833 184.5,175.5C 174.251,175.181 164.084,175.514 154,176.5C 153.506,174.866 153.34,173.199 153.5,171.5C 154.268,172.263 154.768,173.263 155,174.5C 164.35,174.424 173.85,174.424 183.5,174.5C 183.232,172.901 183.566,171.568 184.5,170.5 Z"/></g>
<g><path style="opacity:0.004" fill="#c4c4c4" d="M 554.5,171.5 C 555.738,173.214 556.405,175.214 556.5,177.5C 554.926,175.898 554.259,173.898 554.5,171.5 Z"/></g>
<g><path style="opacity:0.043" fill="#c8c7e2" d="M 225.5,175.5 C 229.534,175.517 233.201,176.517 236.5,178.5C 232.573,178.074 228.907,177.074 225.5,175.5 Z"/></g>
<g><path style="opacity:0.275" fill="#b6b6b6" d="M 364.5,168.5 C 364.678,172.122 364.011,175.456 362.5,178.5C 362.322,174.878 362.989,171.544 364.5,168.5 Z"/></g>
<g><path style="opacity:0.353" fill="#b3b3b3" d="M 563.5,173.5 C 563.598,175.553 562.931,177.22 561.5,178.5C 561.402,176.447 562.069,174.78 563.5,173.5 Z"/></g>
<g><path style="opacity:0.027" fill="#d2d2d2" d="M 384.5,172.5 C 385.768,174.905 386.435,177.572 386.5,180.5C 384.96,178.162 384.294,175.495 384.5,172.5 Z"/></g>
<g><path style="opacity:0.898" fill="#7b7b7b" d="M 550.5,175.5 C 551.537,176.93 552.204,178.597 552.5,180.5C 550.787,179.365 550.12,177.698 550.5,175.5 Z"/></g>
<g><path style="opacity:0.42" fill="#a7a6d0" d="M 118.5,182.5 C 121.34,181.083 124.007,181.416 126.5,183.5C 123.873,182.908 121.206,182.575 118.5,182.5 Z"/></g>
<g><path style="opacity:0.392" fill="#a2a2ce" d="M 222.5,182.5 C 219.794,182.575 217.127,182.908 214.5,183.5C 216.993,181.416 219.66,181.083 222.5,182.5 Z"/></g>
<g><path style="opacity:0.325" fill="#cfcfe6" d="M 94.5,175.5 C 95.0545,179.012 94.3878,182.012 92.5,184.5C 93.0885,181.39 93.7552,178.39 94.5,175.5 Z"/></g>
<g><path style="opacity:0.481" fill="#a8a8d1" d="M 238.5,179.5 C 239.926,182.892 241.593,186.225 243.5,189.5C 243.48,190.726 243.147,191.726 242.5,192.5C 240.429,188.557 239.095,184.223 238.5,179.5 Z"/></g>
<g><path style="opacity:0.31" fill="#aaaaaa" d="M 367.5,175.5 C 369.011,178.544 369.678,181.878 369.5,185.5C 368.215,182.411 367.549,179.078 367.5,175.5 Z"/></g>
<g><path style="opacity:0.4" fill="#a7a7a7" d="M 533.5,179.5 C 534.931,180.78 535.598,182.447 535.5,184.5C 534.069,183.22 533.402,181.553 533.5,179.5 Z"/></g>
<g><path style="opacity:0.224" fill="#b6b6b6" d="M 557.5,180.5 C 558.222,180.918 558.722,181.584 559,182.5C 559.383,181.944 559.883,181.611 560.5,181.5C 560.719,182.675 560.386,183.675 559.5,184.5C 557.889,183.68 557.222,182.346 557.5,180.5 Z"/></g>
<g><path style="opacity:0.447" fill="#b3b2d7" d="M 127.5,183.5 C 129.027,183.427 130.027,184.094 130.5,185.5C 129.833,185.5 129.167,185.5 128.5,185.5C 128.167,184.833 127.833,184.167 127.5,183.5 Z"/></g>
<g><path style="opacity:0.973" fill="#6e6e6e" d="M 552.5,181.5 C 553.931,182.78 554.598,184.447 554.5,186.5C 552.787,185.365 552.12,183.698 552.5,181.5 Z"/></g>
<g><path style="opacity:0.997" fill="#4b489f" d="M 128.5,185.5 C 128.5,185.833 128.5,186.167 128.5,186.5C 128.738,188.404 129.738,189.738 131.5,190.5C 131.5,193.833 131.5,197.167 131.5,200.5C 130.833,203.167 129.167,204.833 126.5,205.5C 122.766,205.677 119.099,205.344 115.5,204.5C 110.374,200.627 109.208,195.627 112,189.5C 116.537,184.525 122.037,183.191 128.5,185.5 Z"/></g>
<g><path style="opacity:0.997" fill="#49469e" d="M 226.5,186.5 C 226.738,188.404 227.738,189.738 229.5,190.5C 232.696,196.595 231.363,201.595 225.5,205.5C 222.167,205.5 218.833,205.5 215.5,205.5C 212.833,204.833 211.167,203.167 210.5,200.5C 210.307,196.434 210.64,192.434 211.5,188.5C 212.343,186.827 213.676,185.66 215.5,185C 218.5,184.333 221.5,184.333 224.5,185C 225.416,185.278 226.082,185.778 226.5,186.5 Z"/></g>
<g><path style="opacity:0.213" fill="#bdbdbd" d="M 344.5,180.5 C 344.5,182.167 344.5,183.833 344.5,185.5C 349.833,185.5 355.167,185.5 360.5,185.5C 360.263,184.209 360.596,183.209 361.5,182.5C 361.5,183.833 361.5,185.167 361.5,186.5C 355.132,186.83 348.798,186.496 342.5,185.5C 343.028,183.664 343.694,181.997 344.5,180.5 Z"/></g>
<g><path style="opacity:0.02" fill="#c5c5c5" d="M 453.5,183.5 C 452.92,185.749 451.587,187.415 449.5,188.5C 450.08,186.251 451.413,184.585 453.5,183.5 Z"/></g>
<g><path style="opacity:0.702" fill="#a6a4cf" d="M 128.5,186.5 C 129.5,187.167 130.5,187.833 131.5,188.5C 131.5,189.167 131.5,189.833 131.5,190.5C 129.738,189.738 128.738,188.404 128.5,186.5 Z"/></g>
<g><path style="opacity:0.671" fill="#aba9d3" d="M 226.5,186.5 C 228.262,187.262 229.262,188.596 229.5,190.5C 227.738,189.738 226.738,188.404 226.5,186.5 Z"/></g>
<g><path style="opacity:0.214" fill="#c8c8c8" d="M 369.5,185.5 C 370.461,187.265 370.795,189.265 370.5,191.5C 361.167,191.5 351.833,191.5 342.5,191.5C 351.318,190.507 360.318,190.173 369.5,190.5C 369.5,188.833 369.5,187.167 369.5,185.5 Z"/></g>
<g><path style="opacity:0.984" fill="#8883bf" d="M 91.5,188.5 C 92.1031,190.19 93.1031,191.69 94.5,193C 93.7476,193.671 93.4142,194.504 93.5,195.5C 91.1783,193.546 90.5117,191.213 91.5,188.5 Z"/></g>
<g><path style="opacity:0.035" fill="#cecece" d="M 387.5,187.5 C 388.768,189.905 389.435,192.572 389.5,195.5C 387.96,193.162 387.294,190.495 387.5,187.5 Z"/></g>
<g><path style="opacity:0.573" fill="#acacac" d="M 449.5,188.5 C 449.963,191.482 450.296,194.482 450.5,197.5C 448.713,194.591 448.379,191.591 449.5,188.5 Z"/></g>
<g><path style="opacity:0.339" fill="#a5a5a5" d="M 554.5,186.5 C 555.268,187.263 555.768,188.263 556,189.5C 556.827,202.673 556.66,215.673 555.5,228.5C 555.5,228.167 555.5,227.833 555.5,227.5C 555.76,213.804 555.427,200.137 554.5,186.5 Z"/></g>
<g><path style="opacity:0.886" fill="#9794c8" d="M 211.5,188.5 C 210.64,192.434 210.307,196.434 210.5,200.5C 208.735,197.877 208.068,194.877 208.5,191.5C 209.272,190.306 210.272,189.306 211.5,188.5 Z"/></g>
<g><path style="opacity:0.498" fill="#aeadd4" d="M 109.5,190.5 C 108.949,193.807 108.616,197.14 108.5,200.5C 105.615,200.806 102.948,200.473 100.5,199.5C 102.833,199.5 105.167,199.5 107.5,199.5C 107.068,196.123 107.735,193.123 109.5,190.5 Z"/></g>
<g><path style="opacity:0.718" fill="#9997c9" d="M 131.5,190.5 C 132.306,191.997 132.972,193.664 133.5,195.5C 132.972,197.336 132.306,199.003 131.5,200.5C 131.5,197.167 131.5,193.833 131.5,190.5 Z"/></g>
<g><path style="opacity:0.035" fill="#d5d5e9" d="M 208.5,189.5 C 208.5,190.167 208.5,190.833 208.5,191.5C 207.527,193.948 207.194,196.615 207.5,199.5C 207.167,199.5 206.833,199.5 206.5,199.5C 206.335,196.482 206.502,193.482 207,190.5C 207.383,189.944 207.883,189.611 208.5,189.5 Z"/></g>
<g><path style="opacity:0.522" fill="#a09ecd" d="M 94.5,197.5 C 96.8984,197.259 98.8984,197.926 100.5,199.5C 98.1016,199.741 96.1016,199.074 94.5,197.5 Z"/></g>
<g><path style="opacity:0.239" fill="#c1c0de" d="M 232.5,191.5 C 233.477,194.287 233.81,197.287 233.5,200.5C 235.806,200.007 238.139,199.674 240.5,199.5C 240.721,196.933 241.388,194.599 242.5,192.5C 242.425,195.206 242.092,197.873 241.5,200.5C 238.531,201.329 235.531,201.495 232.5,201C 232.322,198.045 232.322,194.879 232.5,191.5 Z"/></g>
<g><path style="opacity:1" fill="#090909" d="M 310.5,199.5 C 315.833,199.5 321.167,199.5 326.5,199.5C 326.5,205.5 326.5,211.5 326.5,217.5C 324.5,220.167 322.167,222.5 319.5,224.5C 317.596,224.738 316.262,225.738 315.5,227.5C 311.5,227.5 307.5,227.5 303.5,227.5C 303.5,222.167 303.5,216.833 303.5,211.5C 305.792,211.756 307.959,211.423 310,210.5C 310.499,206.848 310.665,203.182 310.5,199.5 Z"/></g>
<g><path style="opacity:0.067" fill="#cdcdcd" d="M 429.5,194.5 C 432.779,195.031 434.113,197.031 433.5,200.5C 432.675,198.19 431.342,196.19 429.5,194.5 Z"/></g>
<g><path style="opacity:0.162" fill="#cacaca" d="M 310.5,198.5 C 310.5,198.833 310.5,199.167 310.5,199.5C 310.665,203.182 310.499,206.848 310,210.5C 307.959,211.423 305.792,211.756 303.5,211.5C 303.167,211.5 302.833,211.5 302.5,211.5C 304.556,210.784 306.723,210.117 309,209.5C 309.177,205.644 309.677,201.977 310.5,198.5 Z"/></g>
<g><path style="opacity:1" fill="#030303" d="M 419.5,199.5 C 419.5,208.833 419.5,218.167 419.5,227.5C 414.167,227.5 408.833,227.5 403.5,227.5C 403.5,218.167 403.5,208.833 403.5,199.5C 408.833,199.5 414.167,199.5 419.5,199.5 Z"/></g>
<g><path style="opacity:0.63" fill="#7d7dba" d="M 206.5,199.5 C 206.833,199.5 207.167,199.5 207.5,199.5C 208.625,200.652 208.625,201.652 207.5,202.5C 185.833,202.5 164.167,202.5 142.5,202.5C 164.02,202.163 185.353,201.163 206.5,199.5 Z"/></g>
<g><path style="opacity:0.216" fill="#d2d2d2" d="M 420.5,199.5 C 420.167,199.5 419.833,199.5 419.5,199.5C 414.167,199.5 408.833,199.5 403.5,199.5C 403.5,208.833 403.5,218.167 403.5,227.5C 403.5,227.833 403.5,228.167 403.5,228.5C 402.506,218.681 402.173,208.681 402.5,198.5C 408.69,198.177 414.69,198.51 420.5,199.5 Z"/></g>
<g><path style="opacity:0.561" fill="#676767" d="M 419.5,199.5 C 419.833,199.5 420.167,199.5 420.5,199.5C 420.5,209.167 420.5,218.833 420.5,228.5C 414.833,228.5 409.167,228.5 403.5,228.5C 403.5,228.167 403.5,227.833 403.5,227.5C 408.833,227.5 414.167,227.5 419.5,227.5C 419.5,218.167 419.5,208.833 419.5,199.5 Z"/></g>
<g><path style="opacity:0.018" fill="#f1f1f7" d="M 134.5,199.5 C 134.5,200.5 134.5,201.5 134.5,202.5C 137.167,202.5 139.833,202.5 142.5,202.5C 164.167,202.5 185.833,202.5 207.5,202.5C 183.764,203.171 159.931,203.838 136,204.5C 133.647,203.182 133.147,201.515 134.5,199.5 Z"/></g>
<g><path style="opacity:0.455" fill="#a5a5a5" d="M 450.5,197.5 C 451.924,199.515 452.59,201.848 452.5,204.5C 451.076,202.485 450.41,200.152 450.5,197.5 Z"/></g>
<g><path style="opacity:0.753" fill="#a8a6d1" d="M 115.5,204.5 C 119.099,205.344 122.766,205.677 126.5,205.5C 122.571,208.27 118.904,207.937 115.5,204.5 Z"/></g>
<g><path style="opacity:0.682" fill="#acaad3" d="M 215.5,205.5 C 218.833,205.5 222.167,205.5 225.5,205.5C 222.132,208.046 218.799,208.046 215.5,205.5 Z"/></g>
<g><path style="opacity:0.487" fill="#aeaeae" d="M 467.5,135.5 C 467.5,135.833 467.5,136.167 467.5,136.5C 467.5,159.5 467.5,182.5 467.5,205.5C 472.833,205.5 478.167,205.5 483.5,205.5C 483.833,205.5 484.167,205.5 484.5,205.5C 478.69,206.49 472.69,206.823 466.5,206.5C 466.169,182.661 466.502,158.994 467.5,135.5 Z"/></g>
<g><path style="opacity:0.434" fill="#989898" d="M 390.5,201.5 C 391.283,203.343 391.95,205.343 392.5,207.5C 380.518,208.499 368.518,208.832 356.5,208.5C 367.654,207.505 378.988,207.172 390.5,207.5C 390.5,205.5 390.5,203.5 390.5,201.5 Z"/></g>
<g><path style="opacity:0.043" fill="#bfbfbf" d="M 434.5,204.5 C 436.04,206.838 436.706,209.505 436.5,212.5C 435.232,210.095 434.565,207.428 434.5,204.5 Z"/></g>
<g><path style="opacity:0.643" fill="#7d7d7d" d="M 326.5,217.5 C 326.5,211.5 326.5,205.5 326.5,199.5C 321.167,199.5 315.833,199.5 310.5,199.5C 310.5,199.167 310.5,198.833 310.5,198.5C 315.975,197.511 321.642,197.178 327.5,197.5C 327.824,204.354 327.491,211.021 326.5,217.5 Z"/></g>
<g><path style="opacity:0.055" fill="#e2e2e2" d="M 290.5,209.5 C 293.01,209.927 295.343,210.593 297.5,211.5C 295.473,211.662 293.473,211.495 291.5,211C 290.944,210.617 290.611,210.117 290.5,209.5 Z"/></g>
<g><path style="opacity:0.426" fill="#7f7f7f" d="M 302.5,211.5 C 302.833,211.5 303.167,211.5 303.5,211.5C 303.5,216.833 303.5,222.167 303.5,227.5C 307.5,227.5 311.5,227.5 315.5,227.5C 315.5,227.833 315.5,228.167 315.5,228.5C 311.167,228.5 306.833,228.5 302.5,228.5C 302.5,222.833 302.5,217.167 302.5,211.5 Z"/></g>
<g><path style="opacity:0.089" fill="#e7e7e7" d="M 392.5,213.5 C 386.402,212.883 380.735,213.55 375.5,215.5C 374.596,214.791 374.263,213.791 374.5,212.5C 380.69,212.177 386.69,212.51 392.5,213.5 Z"/></g>
<g><path style="opacity:0.729" fill="#6e6e6e" d="M 467.5,210.5 C 473.167,210.5 478.833,210.5 484.5,210.5C 484.5,216.5 484.5,222.5 484.5,228.5C 478.5,228.5 472.5,228.5 466.5,228.5C 466.211,222.409 466.545,216.409 467.5,210.5 Z"/></g>
<g><path style="opacity:1" fill="#000000" d="M 468.5,212.5 C 473.5,212.5 478.5,212.5 483.5,212.5C 483.5,217.5 483.5,222.5 483.5,227.5C 478.5,227.5 473.5,227.5 468.5,227.5C 468.5,222.5 468.5,217.5 468.5,212.5 Z"/></g>
<g><path style="opacity:1" fill="#101010" d="M 392.5,213.5 C 392.565,216.428 393.232,219.095 394.5,221.5C 394.5,223.5 394.5,225.5 394.5,227.5C 388.537,228.045 382.87,227.379 377.5,225.5C 376.419,222.373 375.753,219.04 375.5,215.5C 380.735,213.55 386.402,212.883 392.5,213.5 Z"/></g>
<g><path style="opacity:0.137" fill="#b7b7b7" d="M 355.5,212.5 C 355.57,216.425 354.903,220.091 353.5,223.5C 353.43,219.575 354.097,215.909 355.5,212.5 Z"/></g>
<g><path style="opacity:0.553" fill="#8f8f8f" d="M 453.5,209.5 C 454.924,211.515 455.59,213.848 455.5,216.5C 454.076,214.485 453.41,212.152 453.5,209.5 Z"/></g>
<g><path style="opacity:0.071" fill="#c5c5c5" d="M 437.5,215.5 C 438.768,217.905 439.435,220.572 439.5,223.5C 437.96,221.162 437.294,218.495 437.5,215.5 Z"/></g>
<g><path style="opacity:0.314" fill="#a9a9a9" d="M 392.5,213.5 C 394.04,215.838 394.706,218.505 394.5,221.5C 393.232,219.095 392.565,216.428 392.5,213.5 Z"/></g>
<g><path style="opacity:0.867" fill="#7f7f7f" d="M 455.5,216.5 C 456.768,218.905 457.435,221.572 457.5,224.5C 455.96,222.162 455.294,219.495 455.5,216.5 Z"/></g>
<g><path style="opacity:0.039" fill="#c8c8c8" d="M 319.5,224.5 C 318.5,226.167 317.167,227.5 315.5,228.5C 315.5,228.167 315.5,227.833 315.5,227.5C 316.262,225.738 317.596,224.738 319.5,224.5 Z"/></g>
<g><path style="opacity:0.73" fill="#7f7f7f" d="M 297.5,211.5 C 298.489,216.975 298.822,222.642 298.5,228.5C 293.821,228.666 289.155,228.499 284.5,228C 283.944,227.617 283.611,227.117 283.5,226.5C 288.103,227.383 292.77,227.717 297.5,227.5C 297.5,222.167 297.5,216.833 297.5,211.5 Z"/></g>
<g><path style="opacity:0.726" fill="#595959" d="M 335.5,225.5 C 340.735,227.45 346.402,228.117 352.5,227.5C 346.69,228.49 340.69,228.823 334.5,228.5C 334.263,227.209 334.596,226.209 335.5,225.5 Z"/></g>
<g><path style="opacity:0.727" fill="#676767" d="M 394.5,221.5 C 395.468,223.607 395.802,225.941 395.5,228.5C 389.5,228.5 383.5,228.5 377.5,228.5C 377.5,227.5 377.5,226.5 377.5,225.5C 382.87,227.379 388.537,228.045 394.5,227.5C 394.5,225.5 394.5,223.5 394.5,221.5 Z"/></g>
<g><path style="opacity:0.727" fill="#5d5d5d" d="M 457.5,224.5 C 458.249,225.531 458.915,226.698 459.5,228C 452.986,228.82 446.653,228.653 440.5,227.5C 446.167,227.5 451.833,227.5 457.5,227.5C 457.5,226.5 457.5,225.5 457.5,224.5 Z"/></g>
<g><path style="opacity:0.727" fill="#777777" d="M 489.5,210.5 C 496.5,210.5 503.5,210.5 510.5,210.5C 511.662,216.386 511.662,222.219 510.5,228C 503.508,228.5 496.508,228.666 489.5,228.5C 489.5,222.5 489.5,216.5 489.5,210.5 Z"/></g>
<g><path style="opacity:1" fill="#000000" d="M 490.5,212.5 C 496.833,212.5 503.167,212.5 509.5,212.5C 509.5,217.5 509.5,222.5 509.5,227.5C 503.167,227.5 496.833,227.5 490.5,227.5C 490.5,222.5 490.5,217.5 490.5,212.5 Z"/></g>
<g><path style="opacity:0.728" fill="#686868" d="M 538.5,193.5 C 539.495,204.654 539.828,215.988 539.5,227.5C 544.833,227.5 550.167,227.5 555.5,227.5C 555.5,227.833 555.5,228.167 555.5,228.5C 549.833,228.5 544.167,228.5 538.5,228.5C 538.5,216.833 538.5,205.167 538.5,193.5 Z"/></g>
</svg>
